<svg width="200" height="270" viewBox="0 0 200 270" fill="none" xmlns="http://www.w3.org/2000/svg">
<path d="M124 170.611V189H128C167.765 189 200 221.235 200 261V270H0V261C0 221.235 32.2355 189 72 189H76V170.611C58.7626 162.422 46.3722 145.687 44.3051 125.881C38.4803 125.058 34 120.052 34 114V100C34 94.054 38.3246 89.1181 44 88.1659V82C44 51.0721 69.0721 26 100 26C130.928 26 156 51.0721 156 82V88.1659C161.675 89.1181 166 94.054 166 100V114C166 120.052 161.52 125.058 155.695 125.881C153.628 145.687 141.237 162.422 124 170.611Z" fill="#D0C6AC"/>
<mask id="mask0_591_528" style="mask-type:luminance" maskUnits="userSpaceOnUse" x="0" y="26" width="200" height="244">
<path d="M124 170.611V189H128C167.765 189 200 221.235 200 261V270H0V261C0 221.235 32.2355 189 72 189H76V170.611C58.7626 162.422 46.3722 145.687 44.3051 125.881C38.4803 125.058 34 120.052 34 114V100C34 94.054 38.3246 89.1181 44 88.1659V82C44 51.0721 69.0721 26 100 26C130.928 26 156 51.0721 156 82V88.1659C161.675 89.1181 166 94.054 166 100V114C166 120.052 161.52 125.058 155.695 125.881C153.628 145.687 141.237 162.422 124 170.611Z" fill="white"/>
</mask>
<g mask="url(#mask0_591_528)">
<path d="M200 0H0V270H200V0Z" fill="#FD9841"/>
</g>
<mask id="mask1_591_528" style="mask-type:luminance" maskUnits="userSpaceOnUse" x="0" y="26" width="200" height="244">
<path d="M124 170.611V189H128C167.765 189 200 221.235 200 261V270H0V261C0 221.235 32.2355 189 72 189H76V170.611C58.7626 162.422 46.3722 145.687 44.3051 125.881C38.4803 125.058 34 120.052 34 114V100C34 94.054 38.3246 89.1181 44 88.1659V82C44 51.0721 69.0721 26 100 26C130.928 26 156 51.0721 156 82V88.1659C161.675 89.1181 166 94.054 166 100V114C166 120.052 161.52 125.058 155.695 125.881C153.628 145.687 141.237 162.422 124 170.611Z" fill="white"/>
</mask>
<g mask="url(#mask1_591_528)">
<path fill-rule="evenodd" clip-rule="evenodd" d="M156 105V128C156 158.928 130.928 184 100 184C69.0721 184 44 158.928 44 128V105V120C44 150.928 69.0721 176 100 176C130.928 176 156 150.928 156 120V105Z" fill="black" fill-opacity="0.1"/>
</g>
<path fill-rule="evenodd" clip-rule="evenodd" d="M133.96 189.295C170.936 192.325 200 223.294 200 261.052V270H0V261.052C0 222.953 29.592 191.765 67.0454 189.22C67.0153 189.593 67 189.969 67 190.348C67 202.211 81.9985 211.828 100.5 211.828C119.002 211.828 134 202.211 134 190.348C134 189.995 133.987 189.644 133.96 189.295Z" fill="#E6E6E6"/>
<mask id="mask2_591_528" style="mask-type:luminance" maskUnits="userSpaceOnUse" x="0" y="189" width="200" height="81">
<path fill-rule="evenodd" clip-rule="evenodd" d="M133.96 189.295C170.936 192.325 200 223.294 200 261.052V270H0V261.052C0 222.953 29.592 191.765 67.0454 189.22C67.0153 189.593 67 189.969 67 190.348C67 202.211 81.9985 211.828 100.5 211.828C119.002 211.828 134 202.211 134 190.348C134 189.995 133.987 189.644 133.96 189.295Z" fill="white"/>
</mask>
<g mask="url(#mask2_591_528)">
<path d="M232 160H-32V270H232V160Z" fill="#B1E2FF"/>
</g>
<mask id="mask3_591_528" style="mask-type:luminance" maskUnits="userSpaceOnUse" x="0" y="189" width="200" height="81">
<path fill-rule="evenodd" clip-rule="evenodd" d="M133.96 189.295C170.936 192.325 200 223.294 200 261.052V270H0V261.052C0 222.953 29.592 191.765 67.0454 189.22C67.0153 189.593 67 189.969 67 190.348C67 202.211 81.9985 211.828 100.5 211.828C119.002 211.828 134 202.211 134 190.348C134 189.995 133.987 189.644 133.96 189.295Z" fill="white"/>
</mask>
<g mask="url(#mask3_591_528)">
<g opacity="0.6">
<path d="M100.5 218.761C122.39 218.761 140.135 206.712 140.135 191.847C140.135 176.983 122.39 164.934 100.5 164.934C78.6101 164.934 60.8649 176.983 60.8649 191.847C60.8649 206.712 78.6101 218.761 100.5 218.761Z" fill="black" fill-opacity="0.16"/>
</g>
</g>
<path fill-rule="evenodd" clip-rule="evenodd" d="M81.1179 139.128C82.1757 148.62 90.226 156 100 156C109.804 156 117.874 148.574 118.892 139.04C118.974 138.273 118.117 137 117.043 137C102.149 137 90.7379 137 83.0868 137C82.0066 137 81.012 138.178 81.1179 139.128Z" fill="black" fill-opacity="0.7"/>
<mask id="mask4_591_528" style="mask-type:luminance" maskUnits="userSpaceOnUse" x="81" y="137" width="38" height="19">
<path fill-rule="evenodd" clip-rule="evenodd" d="M81.1179 139.128C82.1757 148.62 90.226 156 100 156C109.804 156 117.874 148.574 118.892 139.04C118.974 138.273 118.117 137 117.043 137C102.149 137 90.7379 137 83.0868 137C82.0066 137 81.012 138.178 81.1179 139.128Z" fill="white"/>
</mask>
<g mask="url(#mask4_591_528)">
<path d="M111 126H90C87.2386 126 85 128.239 85 131V137C85 139.761 87.2386 142 90 142H111C113.761 142 116 139.761 116 137V131C116 128.239 113.761 126 111 126Z" fill="white"/>
</g>
<mask id="mask5_591_528" style="mask-type:luminance" maskUnits="userSpaceOnUse" x="81" y="137" width="38" height="19">
<path fill-rule="evenodd" clip-rule="evenodd" d="M81.1179 139.128C82.1757 148.62 90.226 156 100 156C109.804 156 117.874 148.574 118.892 139.04C118.974 138.273 118.117 137 117.043 137C102.149 137 90.7379 137 83.0868 137C82.0066 137 81.012 138.178 81.1179 139.128Z" fill="white"/>
</mask>
<g mask="url(#mask5_591_528)">
<path d="M95 170C101.075 170 106 165.075 106 159C106 152.925 101.075 148 95 148C88.9249 148 84 152.925 84 159C84 165.075 88.9249 170 95 170Z" fill="#FF4F6D"/>
<path d="M105 170C111.075 170 116 165.075 116 159C116 152.925 111.075 148 105 148C98.9249 148 94 152.925 94 159C94 165.075 98.9249 170 105 170Z" fill="#FF4F6D"/>
</g>
<path fill-rule="evenodd" clip-rule="evenodd" d="M88 120C88 124.418 93.3726 128 100 128C106.627 128 112 124.418 112 120" fill="black" fill-opacity="0.16"/>
<path d="M74 116C81.732 116 88 109.732 88 102C88 94.268 81.732 88 74 88C66.268 88 60 94.268 60 102C60 109.732 66.268 116 74 116Z" fill="white"/>
<path d="M126 116C133.732 116 140 109.732 140 102C140 94.268 133.732 88 126 88C118.268 88 112 94.268 112 102C112 109.732 118.268 116 126 116Z" fill="white"/>
<path d="M74 108C77.3137 108 80 105.314 80 102C80 98.6863 77.3137 96 74 96C70.6863 96 68 98.6863 68 102C68 105.314 70.6863 108 74 108Z" fill="#f00" fill-opacity="0.7"/>
<path d="M126 108C129.314 108 132 105.314 132 102C132 98.6863 129.314 96 126 96C122.686 96 120 98.6863 120 102C120 105.314 122.686 108 126 108Z" fill="#f00" fill-opacity="0.7"/>
<path d="M59.6303 89.1585C63.5452 83.6498 74.278 80.5607 83.5231 82.8311C84.5958 83.0945 85.6789 82.4384 85.9423 81.3658C86.2058 80.2931 85.5497 79.2099 84.477 78.9465C73.7404 76.3099 61.3121 79.8869 56.3698 86.8413C55.7299 87.7417 55.9411 88.9903 56.8415 89.6301C57.7418 90.27 58.9904 90.0588 59.6303 89.1585Z" fill="black" fill-opacity="0.6"/>
<path d="M140.37 89.1585C136.455 83.6498 125.722 80.5607 116.477 82.8311C115.405 83.0945 114.321 82.4384 114.058 81.3658C113.795 80.2931 114.451 79.2099 115.523 78.9465C126.26 76.3099 138.688 79.8869 143.631 86.8413C144.27 87.7417 144.059 88.9903 143.159 89.6301C142.259 90.27 141.01 90.0588 140.37 89.1585Z" fill="black" fill-opacity="0.6"/>
<path fill-rule="evenodd" clip-rule="evenodd" d="M150.68 28.9488C156.086 23.9986 157.387 13.9615 154.318 7.44932C150.549 -0.546148 142.901 -1.54782 135.572 1.96867C128.664 5.28357 122.515 6.38787 114.95 4.78173C107.692 3.24069 100.806 0.522617 93.3034 0.0762471C80.978 -0.657075 69.0034 3.91457 60.6031 13.1293C59.0004 14.8872 57.7089 16.8972 56.4883 18.9344C55.5115 20.5644 54.4105 22.3134 53.995 24.1922C53.7974 25.0856 54.1653 27.2899 53.7204 28.0219C53.2391 28.8123 51.4245 29.5373 50.651 30.1239C49.0843 31.3125 47.7268 32.654 46.4714 34.1711C43.8053 37.3927 42.3377 40.7577 41.1035 44.7428C37.0005 57.9878 36.6528 73.7413 41.9569 86.7468C42.6639 88.4811 44.8551 92.0986 46.1432 88.3848C46.3977 87.6508 45.8087 85.1908 45.81 84.4502C45.8146 81.7301 47.3161 63.7214 53.8571 53.633C55.9862 50.3492 65.8299 38.0522 67.8405 37.9536C68.9058 39.6464 79.7205 50.4625 107.783 49.1949C120.445 48.623 130.183 42.9341 132.521 40.4681C133.549 46.0009 145.513 54.284 147.336 57.6922C152.603 67.5377 153.771 87.9957 155.781 87.9573C157.791 87.919 159.234 82.7198 159.648 81.7271C162.72 74.3517 163.243 65.0948 162.915 57.1684C162.488 46.9664 158.277 35.9419 150.68 28.9488Z" fill="#28354B"/>
<mask id="mask6_591_528" style="mask-type:luminance" maskUnits="userSpaceOnUse" x="38" y="0" width="125" height="90">
<path fill-rule="evenodd" clip-rule="evenodd" d="M150.68 28.9488C156.086 23.9986 157.387 13.9615 154.318 7.44932C150.549 -0.546148 142.901 -1.54782 135.572 1.96867C128.664 5.28357 122.515 6.38787 114.95 4.78173C107.692 3.24069 100.806 0.522617 93.3034 0.0762471C80.978 -0.657075 69.0034 3.91457 60.6031 13.1293C59.0004 14.8872 57.7089 16.8972 56.4883 18.9344C55.5115 20.5644 54.4105 22.3134 53.995 24.1922C53.7974 25.0856 54.1653 27.2899 53.7204 28.0219C53.2391 28.8123 51.4245 29.5373 50.651 30.1239C49.0843 31.3125 47.7268 32.654 46.4714 34.1711C43.8053 37.3927 42.3377 40.7577 41.1035 44.7428C37.0005 57.9878 36.6528 73.7413 41.9569 86.7468C42.6639 88.4811 44.8551 92.0986 46.1432 88.3848C46.3977 87.6508 45.8087 85.1908 45.81 84.4502C45.8146 81.7301 47.3161 63.7214 53.8571 53.633C55.9862 50.3492 65.8299 38.0522 67.8405 37.9536C68.9058 39.6464 79.7205 50.4625 107.783 49.1949C120.445 48.623 130.183 42.9341 132.521 40.4681C133.549 46.0009 145.513 54.284 147.336 57.6922C152.603 67.5377 153.771 87.9957 155.781 87.9573C157.791 87.919 159.234 82.7198 159.648 81.7271C162.72 74.3517 163.243 65.0948 162.915 57.1684C162.488 46.9664 158.277 35.9419 150.68 28.9488Z" fill="white"/>
</mask>
<g mask="url(#mask6_591_528)">
<path d="M231 -10H-33V270H231V-10Z" fill="#ff0"/>
</g>
</svg>
