<svg xmlns="http://www.w3.org/2000/svg" viewBox="0 0 264 280" height="200" width="200" xmlns:v="https://vecta.io/nano">
    <defs>
        <path id="A"
            d="M124 144.61v18.389h4c39.765 0 72 32.235 72 72v9H0v-9c0-39.765 32.235-72 72-72h4V144.61c-17.237-8.189-29.628-24.924-31.695-44.73C38.48 99.057 34 94.051 34 87.999v-14c0-5.946 4.325-10.882 10-11.834v-6.166c0-30.928 25.072-56 56-56s56 25.072 56 56v6.166c5.675.952 10 5.888 10 11.834v14c0 6.052-4.48 11.058-10.305 11.881-2.067 19.806-14.457 36.541-31.695 44.73z" />
    </defs>
    <g fill-rule="evenodd" mask="url(#react-mask-5)" fill="none">
        <g transform="translate(32 36)">
            <mask id="B" fill="#fff">
                <use href="#A" />
            </mask>
            <use fill="#d0c6ac" href="#A" />
            <g fill="#fd9841" mask="url(#B)">
                <path d="M0 0h264v280H0z" />
            </g>
            <path
                d="M156 79v23c0 30.928-25.072 56-56 56s-56-25.072-56-56V79v15c0 30.928 25.072 56 56 56s56-25.072 56-56V79z"
                fill="#000" fill-opacity=".1" mask="url(#B)" />
        </g>
        <g transform="translate(0 170)">
            <defs>
                <path id="C"
                    d="M165.96 29.295c36.976 3.03 66.04 33.999 66.04 71.757V110H32v-8.948c0-38.099 29.592-69.287 67.045-71.832A14.02 14.02 0 0 0 99 30.348c0 11.863 14.998 21.48 33.5 21.48s33.5-9.617 33.5-21.48a14.02 14.02 0 0 0-.04-1.053z" />
            </defs>
            <mask id="D" fill="#fff">
                <use href="#C" />
            </mask>
            <use fill="#e6e6e6" href="#C" />
            <g fill="#b1e2ff" mask="url(#D)">
                <path d="M0 0h264v110H0z" />
            </g>
            <g fill="#000" fill-opacity=".16" mask="url(#D)" opacity=".6">
                <ellipse cx="132.5" cy="31.848" rx="39.635" ry="26.914" />
            </g>
        </g>
        <g transform="translate(76 82)" fill="#000">
            <g transform="translate(2 52)">
                <defs>
                    <path id="E"
                        d="M35.118 15.128C36.176 24.62 44.226 32 54 32c9.804 0 17.874-7.426 18.892-16.96.082-.767-.775-2.04-1.849-2.04H37.087c-1.08 0-2.075 1.178-1.969 2.128z" />
                </defs>
                <mask id="F" fill="#fff">
                    <use href="#E" />
                </mask>
                <use fill-opacity=".7" href="#E" />
                <rect x="39" y="2" width="31" height="16" rx="5" fill="#fff" mask="url(#F)" />
                <g fill="#ff4f6d" mask="url(#F)">
                    <circle cx="49" cy="35" r="11" />
                    <circle cx="59" cy="35" r="11" />
                </g>
            </g>
            <g fill-opacity=".16">
                <path d="M44 48c0 4.418 5.373 8 12 8s12-3.582 12-8" />
            </g>
            <g fill="#fff">
                <circle cx="30" cy="30" r="14" />
                <circle cx="82" cy="30" r="14" />
            </g>
            <circle cx="30" cy="30" r="6" fill-opacity=".7" />
            <circle cx="82" cy="30" r="6" fill-opacity=".7" />
            <g fill-opacity=".6">
                <g fill-rule="nonzero">
                    <path
                        d="M15.63 17.159c3.915-5.509 14.648-8.598 23.893-6.327a2 2 0 1 0 .954-3.885c-10.737-2.637-23.165.94-28.107 7.895a2 2 0 1 0 3.26 2.317zm80.74 0c-3.915-5.509-14.648-8.598-23.893-6.327a2 2 0 1 1-.954-3.885c10.737-2.637 23.165.94 28.107 7.895a2 2 0 1 1-3.26 2.317z" />
                </g>
            </g>
        </g>
        <defs>
            <path id="G" d="M0 0h264v280H0z" />
            <path id="H"
                d="M38 79.36V111c0 22.339 13.08 41.623 32 50.611v13.135c-19.637 2.689-35.359 7.418-46.615 6.255-14.223-1.47-21.888-30.205-22.385-55-.617-30.836 28.319-95.205 39-108 7.923-9.491 29.695-17.449 54-17s46.862 5.812 55 16c12.324 15.428 37.869 74.079 38 109 .093 24.8-9.538 49.66-23 51-11.08 1.103-26.525-1.489-46-3.003v-12.386c18.92-8.988 32-28.272 32-50.611V82.989c-9.521-4.858-18.137-10.74-25.846-17.647 3.209 5.296 6.695 9.807 10.459 13.532-27.017-7.58-48.508-20.423-64.472-38.528C62.16 56.811 51.446 69.815 38 79.361z" />
        </defs>
        <mask id="I" fill="#fff">
            <use href="#G" />
        </mask>
        <g mask="url(#I)">
            <g transform="translate(-1)">
                <g transform="translate(39 19)">
                    <mask id="J" fill="#fff">
                        <use href="#H" />
                    </mask>
                    <use fill="#e6e6e6" href="#H" />
                    <g fill="#000" mask="url(#J)">
                        <path d="M0 0h264v280H0z" />
                    </g>
                </g>
            </g>
        </g>
    </g>
</svg>