<svg width="144" height="186" viewBox="0 0 144 186" fill="none" xmlns="http://www.w3.org/2000/svg">
<path d="M89.1427 115.007V128.142H91.9999C120.403 128.142 143.428 151.167 143.428 179.571V185.999H0.571289V179.571C0.571289 151.167 23.5963 128.142 51.9999 128.142H54.857V115.007C42.5449 109.158 33.6941 97.2041 32.2177 83.0569C28.057 82.4691 24.857 78.8934 24.857 74.5705V64.5705C24.857 60.3234 27.9463 56.7977 31.9999 56.1177V51.7134C31.9999 29.622 49.9084 11.7134 71.9999 11.7134C94.0913 11.7134 112 29.622 112 51.7134V56.1177C116.053 56.7977 119.143 60.3234 119.143 64.5705V74.5705C119.143 78.8934 115.943 82.4691 111.782 83.0569C110.306 97.2041 101.456 109.158 89.1427 115.007V115.007Z" fill="#D0C6AC"/>
<mask id="mask0_586_457" style="mask-type:luminance" maskUnits="userSpaceOnUse" x="0" y="11" width="144" height="175">
<path d="M89.1427 115.007V128.142H91.9999C120.403 128.142 143.428 151.167 143.428 179.571V185.999H0.571289V179.571C0.571289 151.167 23.5963 128.142 51.9999 128.142H54.857V115.007C42.5449 109.158 33.6941 97.2041 32.2177 83.0569C28.057 82.4691 24.857 78.8934 24.857 74.5705V64.5705C24.857 60.3234 27.9463 56.7977 31.9999 56.1177V51.7134C31.9999 29.622 49.9084 11.7134 71.9999 11.7134C94.0913 11.7134 112 29.622 112 51.7134V56.1177C116.053 56.7977 119.143 60.3234 119.143 64.5705V74.5705C119.143 78.8934 115.943 82.4691 111.782 83.0569C110.306 97.2041 101.456 109.158 89.1427 115.007V115.007Z" fill="white"/>
</mask>
<g mask="url(#mask0_586_457)">
<path fill-rule="evenodd" clip-rule="evenodd" d="M0.571289 11.7139H189.143V211.714H0.571289V11.7139Z" fill="#FD9841"/>
</g>
<mask id="mask1_586_457" style="mask-type:luminance" maskUnits="userSpaceOnUse" x="0" y="11" width="144" height="175">
<path d="M89.1427 115.007V128.142H91.9999C120.403 128.142 143.428 151.167 143.428 179.571V185.999H0.571289V179.571C0.571289 151.167 23.5963 128.142 51.9999 128.142H54.857V115.007C42.5449 109.158 33.6941 97.2041 32.2177 83.0569C28.057 82.4691 24.857 78.8934 24.857 74.5705V64.5705C24.857 60.3234 27.9463 56.7977 31.9999 56.1177V51.7134C31.9999 29.622 49.9084 11.7134 71.9999 11.7134C94.0913 11.7134 112 29.622 112 51.7134V56.1177C116.053 56.7977 119.143 60.3234 119.143 64.5705V74.5705C119.143 78.8934 115.943 82.4691 111.782 83.0569C110.306 97.2041 101.456 109.158 89.1427 115.007V115.007Z" fill="white"/>
</mask>
<g mask="url(#mask1_586_457)">
<path fill-rule="evenodd" clip-rule="evenodd" d="M112 68.1426V84.5711C112 106.663 94.0914 124.571 72 124.571C49.9086 124.571 32 106.663 32 84.5711V68.1426V78.8569C32 100.948 49.9086 118.857 72 118.857C94.0914 118.857 112 100.948 112 78.8569V68.1426Z" fill="black" fill-opacity="0.1"/>
</g>
<path fill-rule="evenodd" clip-rule="evenodd" d="M96.257 128.353C122.668 130.518 143.428 152.638 143.428 179.608V186H0.571289V179.608C0.571289 152.395 21.7084 130.118 48.4606 128.3C48.439 128.568 48.4283 128.837 48.4284 129.106C48.4284 137.579 59.1413 144.448 72.357 144.448C85.5727 144.448 96.2856 137.579 96.2856 129.106C96.2855 128.855 96.276 128.604 96.257 128.353V128.353Z" fill="#E6E6E6"/>
<mask id="mask2_586_457" style="mask-type:luminance" maskUnits="userSpaceOnUse" x="0" y="128" width="144" height="58">
<path fill-rule="evenodd" clip-rule="evenodd" d="M96.257 128.353C122.668 130.518 143.428 152.638 143.428 179.608V186H0.571289V179.608C0.571289 152.395 21.7084 130.118 48.4606 128.3C48.439 128.568 48.4283 128.837 48.4284 129.106C48.4284 137.579 59.1413 144.448 72.357 144.448C85.5727 144.448 96.2856 137.579 96.2856 129.106C96.2855 128.855 96.276 128.604 96.257 128.353V128.353Z" fill="white"/>
</mask>
<g mask="url(#mask2_586_457)">
<path fill-rule="evenodd" clip-rule="evenodd" d="M-22.2856 107.428H166.286V186H-22.2856V107.428Z" fill="#B1E2FF"/>
</g>
<mask id="mask3_586_457" style="mask-type:luminance" maskUnits="userSpaceOnUse" x="0" y="128" width="144" height="58">
<path fill-rule="evenodd" clip-rule="evenodd" d="M96.257 128.353C122.668 130.518 143.428 152.638 143.428 179.608V186H0.571289V179.608C0.571289 152.395 21.7084 130.118 48.4606 128.3C48.439 128.568 48.4283 128.837 48.4284 129.106C48.4284 137.579 59.1413 144.448 72.357 144.448C85.5727 144.448 96.2856 137.579 96.2856 129.106C96.2855 128.855 96.276 128.604 96.257 128.353V128.353Z" fill="white"/>
</mask>
<g mask="url(#mask3_586_457)">
<g opacity="0.6">
<path d="M72.3571 149.401C87.9927 149.401 100.668 140.794 100.668 130.177C100.668 119.56 87.9927 110.953 72.3571 110.953C56.7215 110.953 44.0464 119.56 44.0464 130.177C44.0464 140.794 56.7215 149.401 72.3571 149.401Z" fill="black" fill-opacity="0.16"/>
</g>
</g>
<path fill-rule="evenodd" clip-rule="evenodd" d="M58.5129 92.52C59.2686 99.3 65.0186 104.571 72 104.571C79.0029 104.571 84.7672 99.2671 85.4943 92.4571C85.5529 91.9093 84.9407 91 84.1736 91H59.9193C59.1479 91 58.4372 91.8414 58.5129 92.52Z" fill="black" fill-opacity="0.7"/>
<mask id="mask4_586_457" style="mask-type:luminance" maskUnits="userSpaceOnUse" x="58" y="91" width="28" height="14">
<path fill-rule="evenodd" clip-rule="evenodd" d="M58.5129 92.52C59.2686 99.3 65.0186 104.571 72 104.571C79.0029 104.571 84.7672 99.2671 85.4943 92.4571C85.5529 91.9093 84.9407 91 84.1736 91H59.9193C59.1479 91 58.4372 91.8414 58.5129 92.52Z" fill="white"/>
</mask>
<g mask="url(#mask4_586_457)">
<path d="M79.8571 83.1431H64.8571C62.8846 83.1431 61.2856 84.742 61.2856 86.7145V91.0002C61.2856 92.9727 62.8846 94.5716 64.8571 94.5716H79.8571C81.8295 94.5716 83.4285 92.9727 83.4285 91.0002V86.7145C83.4285 84.742 81.8295 83.1431 79.8571 83.1431Z" fill="white"/>
</g>
<mask id="mask5_586_457" style="mask-type:luminance" maskUnits="userSpaceOnUse" x="58" y="91" width="28" height="14">
<path fill-rule="evenodd" clip-rule="evenodd" d="M58.5129 92.52C59.2686 99.3 65.0186 104.571 72 104.571C79.0029 104.571 84.7672 99.2671 85.4943 92.4571C85.5529 91.9093 84.9407 91 84.1736 91H59.9193C59.1479 91 58.4372 91.8414 58.5129 92.52Z" fill="white"/>
</mask>
<g mask="url(#mask5_586_457)">
<path d="M68.4284 114.571C72.7678 114.571 76.2856 111.053 76.2856 106.714C76.2856 102.375 72.7678 98.8569 68.4284 98.8569C64.0891 98.8569 60.5713 102.375 60.5713 106.714C60.5713 111.053 64.0891 114.571 68.4284 114.571Z" fill="#FF4F6D"/>
<path d="M75.5715 114.571C79.9109 114.571 83.4286 111.053 83.4286 106.714C83.4286 102.375 79.9109 98.8569 75.5715 98.8569C71.2321 98.8569 67.7144 102.375 67.7144 106.714C67.7144 111.053 71.2321 114.571 75.5715 114.571Z" fill="#FF4F6D"/>
</g>
<path fill-rule="evenodd" clip-rule="evenodd" d="M63.4287 78.8569C63.4287 82.0126 67.2666 84.5712 72.0001 84.5712C76.7337 84.5712 80.5716 82.0126 80.5716 78.8569" fill="black" fill-opacity="0.16"/>
<path d="M53.4287 76C58.9516 76 63.4287 71.5228 63.4287 66C63.4287 60.4772 58.9516 56 53.4287 56C47.9059 56 43.4287 60.4772 43.4287 66C43.4287 71.5228 47.9059 76 53.4287 76Z" fill="white"/>
<path d="M90.5718 76C96.0946 76 100.572 71.5228 100.572 66C100.572 60.4772 96.0946 56 90.5718 56C85.0489 56 80.5718 60.4772 80.5718 66C80.5718 71.5228 85.0489 76 90.5718 76Z" fill="white"/>
<path d="M53.4288 70.2858C55.7957 70.2858 57.7145 68.367 57.7145 66.0001C57.7145 63.6331 55.7957 61.7144 53.4288 61.7144C51.0618 61.7144 49.1431 63.6331 49.1431 66.0001C49.1431 68.367 51.0618 70.2858 53.4288 70.2858Z" fill="#f00" fill-opacity="0.7"/>
<path d="M90.5714 70.2858C92.9383 70.2858 94.8571 68.367 94.8571 66.0001C94.8571 63.6331 92.9383 61.7144 90.5714 61.7144C88.2044 61.7144 86.2856 63.6331 86.2856 66.0001C86.2856 68.367 88.2044 70.2858 90.5714 70.2858Z" fill="#f00" fill-opacity="0.7"/>
<path d="M43.1644 56.8278C45.9608 52.8928 53.6272 50.6863 60.2308 52.3085C60.413 52.3532 60.6023 52.3616 60.7877 52.3333C60.9732 52.3049 61.1512 52.2402 61.3117 52.143C61.4722 52.0458 61.612 51.918 61.723 51.7667C61.8341 51.6155 61.9143 51.4439 61.959 51.2617C62.0038 51.0795 62.0122 50.8903 61.9838 50.7048C61.9554 50.5193 61.8908 50.3413 61.7936 50.1808C61.6964 50.0203 61.5685 49.8806 61.4173 49.7695C61.2661 49.6584 61.0945 49.5782 60.9122 49.5335C53.243 47.6499 44.3658 50.2049 40.8358 55.1728C40.7236 55.3255 40.643 55.499 40.5985 55.6832C40.554 55.8674 40.5466 56.0586 40.5768 56.2456C40.6069 56.4327 40.6739 56.6119 40.774 56.7728C40.8741 56.9337 41.0051 57.0731 41.1596 57.1829C41.314 57.2927 41.4888 57.3706 41.6736 57.4122C41.8585 57.4538 42.0498 57.4582 42.2363 57.4252C42.4229 57.3921 42.6011 57.3223 42.7604 57.2197C42.9197 57.1171 43.057 56.9839 43.1644 56.8278ZM100.836 56.8278C98.0394 52.8928 90.373 50.6863 83.7694 52.3085C83.5872 52.3532 83.3979 52.3616 83.2125 52.3333C83.027 52.3049 82.849 52.2402 82.6885 52.143C82.528 52.0458 82.3882 51.918 82.2772 51.7667C82.1661 51.6155 82.0859 51.4439 82.0412 51.2617C81.9964 51.0795 81.988 50.8903 82.0164 50.7048C82.0448 50.5193 82.1094 50.3413 82.2066 50.1808C82.3038 50.0203 82.4317 49.8806 82.5829 49.7695C82.7341 49.6584 82.9058 49.5782 83.088 49.5335C90.7573 47.6499 99.6344 50.2049 103.164 55.1728C103.277 55.3255 103.357 55.499 103.402 55.6832C103.446 55.8674 103.454 56.0586 103.423 56.2456C103.393 56.4327 103.326 56.6119 103.226 56.7728C103.126 56.9337 102.995 57.0731 102.841 57.1829C102.686 57.2927 102.511 57.3706 102.327 57.4122C102.142 57.4538 101.95 57.4582 101.764 57.4252C101.577 57.3921 101.399 57.3223 101.24 57.2197C101.08 57.1171 100.943 56.9839 100.836 56.8278Z" fill="black" fill-opacity="0.6"/>
<path fill-rule="evenodd" clip-rule="evenodd" d="M32 56.2571V78.8571C32 94.8135 41.3428 108.588 54.8571 115.008V124.39C40.8307 126.311 29.6007 129.689 21.5607 128.858C11.4014 127.808 5.92639 107.283 5.57139 89.5721C5.13068 67.5464 25.7993 21.5685 33.4285 12.4292C39.0878 5.64995 54.6393 -0.0343352 72 0.286379C89.3607 0.607093 105.473 4.43781 111.286 11.715C120.089 22.735 138.335 64.6285 138.429 89.5721C138.495 107.286 131.616 125.044 122 126.001C114.086 126.789 103.054 124.937 89.1428 123.856V115.009C102.657 108.589 112 94.8142 112 78.8578V58.8492C105.199 55.3792 99.045 51.1778 93.5385 46.2442C95.8307 50.0271 98.3207 53.2492 101.009 55.91C81.7114 50.4957 66.3607 41.3221 54.9578 28.39C49.2571 40.1507 41.6043 49.4392 32 56.2578V56.2571Z" fill="#E6E6E6"/>
<mask id="mask6_586_457" style="mask-type:luminance" maskUnits="userSpaceOnUse" x="5" y="0" width="134" height="129">
<path fill-rule="evenodd" clip-rule="evenodd" d="M32 56.2571V78.8571C32 94.8135 41.3428 108.588 54.8571 115.008V124.39C40.8307 126.311 29.6007 129.689 21.5607 128.858C11.4014 127.808 5.92639 107.283 5.57139 89.5721C5.13068 67.5464 25.7993 21.5685 33.4285 12.4292C39.0878 5.64995 54.6393 -0.0343352 72 0.286379C89.3607 0.607093 105.473 4.43781 111.286 11.715C120.089 22.735 138.335 64.6285 138.429 89.5721C138.495 107.286 131.616 125.044 122 126.001C114.086 126.789 103.054 124.937 89.1428 123.856V115.009C102.657 108.589 112 94.8142 112 78.8578V58.8492C105.199 55.3792 99.045 51.1778 93.5385 46.2442C95.8307 50.0271 98.3207 53.2492 101.009 55.91C81.7114 50.4957 66.3607 41.3221 54.9578 28.39C49.2571 40.1507 41.6043 49.4392 32 56.2578V56.2571Z" fill="white"/>
</mask>
<g mask="url(#mask6_586_457)">
<path fill-rule="evenodd" clip-rule="evenodd" d="M4.85693 -0.428711H193.428V199.571H4.85693V-0.428711Z" fill="#ff0"/>
</g>
</svg>
